<svg width="1880" height="834" viewBox="0 0 1880 834" fill="none" xmlns="http://www.w3.org/2000/svg">
<path d="M0.266667 416.267L0.666667 832.667L940.4 833.067L1880 833.333V416.667V0H940H0L0.266667 416.267ZM1868 416.667V820H941.333H14.6667V416.667V13.3333H941.333H1868V416.667Z" fill="#FFFAFA"/>
<path d="M28.2667 416.267L28.6667 804.667L940.4 805.067L1852 805.333V416.667V28H940H28L28.2667 416.267ZM335.6 150.667C339.333 152.8 342.8 155.2 343.333 156C344.4 157.733 350.267 157.733 351.333 156C351.733 155.2 353.2 154.667 354.4 154.667C355.6 154.667 358.4 153.733 360.667 152.533C363.733 150.933 368.8 150.533 382.133 150.533C401.067 150.533 411.867 152.667 426.133 159.2C436.133 163.867 449.333 174.133 449.333 177.467C449.333 179.867 448.267 179.467 438.267 174.133C423.867 166.533 415.2 164 402.533 164C390 164 384.267 165.733 386.667 168.667C387.6 169.733 390 170.667 392 170.667C398.4 170.667 416.4 174.8 422.667 177.6C433.467 182.533 451.733 197.467 453.733 202.933C455.467 208 451.467 206.533 444.8 199.733C433.467 188.267 418 181.6 400 180.533L388.667 179.733L383.733 184.533L378.8 189.333L383.333 198.4C387.067 205.467 388 208.933 388 214.933C388 219.067 387.333 224.133 386.667 226C384 232.933 381.333 248.8 381.333 257.333C381.467 265.867 381.467 266.133 388.4 273.6L395.333 281.2L404 278.8C408.8 277.467 417.067 274.667 422.4 272.8C427.867 270.8 435.067 269.067 438.4 268.8C441.867 268.533 448 267.2 452 266C456 264.667 462.933 263.333 467.333 263.067C471.733 262.8 481.6 262 489.2 261.333C497.867 260.533 504.667 260.533 507.2 261.2C509.467 261.867 513.733 263.067 516.667 263.867C533.067 268 541.2 271.2 542.8 274.267C543.733 275.867 548 279.6 552.267 282.267C557.333 285.6 560.4 288.533 560.933 290.667C561.333 292.533 563.867 297.6 566.667 302C573.467 313.067 576 321.467 576 332.533C576 343.733 571.467 358.4 566 365.067C564.933 366.4 562 370 559.467 373.067C556.8 376.267 554.667 379.333 554.667 379.733C554.667 380.267 556 382.8 557.6 385.333C559.2 387.867 560.933 392.667 561.467 396C562 399.333 563.067 404.4 563.867 407.333C565.867 415.067 565.733 427.333 563.467 429.2C562.533 430 561.333 433.067 560.8 436.133C560.4 439.067 559.333 442.533 558.667 443.733C558 444.933 555.867 449.467 554.133 453.6C552.133 458 549.867 461.333 548.667 461.333C544.667 461.333 543.733 466.533 544.667 481.2C545.467 493.067 546.133 495.867 548.667 499.2L551.867 503.2L548.933 504.667C545.333 506.4 543.6 517.2 544.4 532.267C544.933 541.067 544.8 542.4 542.933 541.733C539.2 540.267 527.6 555.867 524.667 566.4C523.867 568.933 523.067 569.333 520.533 568.8C518.4 568.267 514.933 569.333 509.733 572C494.8 580 472 580.267 461.867 572.533C456 568 454.667 565.467 454.667 559.067C454.667 547.733 469.067 540.667 476.4 548.533C480.4 552.8 487.467 551.867 490.533 546.533C491.6 544.533 494 542.133 495.6 541.467C499.067 539.867 499.333 538.4 497.2 534.533C496.133 532.4 496.267 531.2 497.867 529.467C499.067 528.133 500 525.867 500 524.267C500 522.8 501.6 519.6 503.467 517.333C506.533 513.867 506.8 512.667 505.6 510C504.133 506.8 505.467 501.2 509.467 494.267C510.533 492.4 510.267 490.933 508.8 488.667C507.333 486.4 506.667 482.133 506.533 475.067V464.667L500.933 460.667C494.533 456 491.6 449.6 489.6 435.6C488.667 429.6 487.067 424.667 484.8 421.467C480.533 415.333 480.4 413.6 484.4 413.067C488.533 412.533 489.067 405.467 485.333 399.333C482.267 394.267 475.6 388.933 474.133 390.267C473.733 390.667 473.333 401.6 473.333 414.4V437.6L476.667 440.267C480.133 442.933 485.333 451.867 485.333 454.933C485.333 455.867 488 460 491.333 464C495.333 468.8 497.067 472 496.4 473.333C494.533 477.333 494.4 491.467 496.133 500.533C497.733 509.2 497.733 509.733 495.067 511.867C493.467 513.067 491.867 515.333 491.333 517.067C490 521.733 487.733 519.867 485.467 512.267C484.4 508.4 482.667 505.333 481.867 505.333C480.667 505.333 480.133 499.467 479.733 484.267C479.467 468.533 478.8 462.533 477.333 460.267C474.267 455.6 473.333 456.667 473.333 465.333C473.333 469.733 472.8 473.333 472.267 473.333C471.733 473.333 457.733 463.333 441.067 450.933C424.533 438.667 409.6 427.733 408 426.667C406.4 425.6 394.267 416.667 381.2 406.8L357.333 389.067L353.733 391.333C349.467 394 326.8 410.267 292.933 434.933C291.733 435.867 284.533 441.067 276.933 446.4C269.467 451.733 258 460 251.333 464.8L239.333 473.467L238.667 466C238.267 462 237.6 458.667 237.067 458.667C236.4 458.667 235.467 458.667 234.8 458.667C232.4 458.667 229.067 475.867 229.867 484.4C231.6 501.333 232.133 520.667 230.933 522.533C230 523.733 228.933 523.867 227.2 522.933C225.333 522 223.867 522.133 222 523.467C217.2 527.067 215.733 525.867 216.8 519.333C217.467 514.667 217.2 512.667 215.467 510.8C213.467 508.667 213.467 508 215.333 503.6C218.267 496.533 218 490.533 214.667 489.733C211.333 488.8 211.333 488.667 214.533 484.267C218.4 478.667 222.667 469.733 222.667 466.933C222.667 462.267 228.4 446 233.6 436.267C238.667 426.667 238.667 426.4 238.667 411.333C238.667 402.933 238.133 395.867 237.333 395.333C235.867 394.4 233.6 396.667 226.267 405.6C220.4 412.8 220.267 416.4 225.733 417.067C229.733 417.6 230.267 419.6 227.333 423.467C226.267 424.933 225.467 429.067 225.333 433.467C225.333 448.4 218.4 461.333 206.267 468.933C201.2 472.133 201.067 472.4 201.733 477.867C202.267 481.467 201.867 484.8 200.8 486.933C199.2 490 199.333 490.933 201.467 494.133C204.267 498.533 204.267 509.2 201.467 514.533C200 517.2 200.133 518 202.533 520.533C205.6 523.733 209.333 532.133 209.333 535.6C209.333 536.933 212.8 541.6 217.2 545.867C223.067 551.6 225.733 553.467 228.133 553.067C230 552.8 231.467 551.6 231.733 550C233.067 542.8 243.333 540.533 250 545.867C253.467 548.667 254 550 254 555.733C254 561.6 253.333 563.2 249.6 567.067C239.6 577.333 209.067 581.6 194 574.933C190.4 573.2 185.067 570 182.267 567.733C178.4 564.667 176.267 563.867 173.467 564.4L169.733 565.2L168.8 554.4C167.733 542.267 167.467 541.333 164.133 541.333C161.733 541.333 161.733 541.067 164.133 533.733C166.8 526 167.2 519.333 165.867 512.133C165.2 508.8 164.4 508 161.6 508C158.267 508 158.267 508 160.8 504.933C165.2 499.867 166.667 496.267 166.8 490.4C166.8 487.2 167.333 481.6 167.867 478C169.067 470.8 166.933 464 163.467 464C160.4 464 156.533 459.6 153.467 452.8C152 449.2 150.667 445.6 150.667 444.667C150.667 443.733 149.2 440.8 147.333 438.133C144.533 434 144 431.733 144 423.2C144 417.733 144.533 412 145.333 410.667C146 409.333 147.067 404.8 147.467 400.533C148.133 394.933 149.6 391.067 152.4 387.067L156.4 381.467L149.733 374C140.667 363.867 136.4 355.6 133.867 343.2C132 334.4 131.867 331.333 133.333 323.333C134.933 313.6 139.333 302.667 144 296C145.467 294 146.667 291.333 146.667 290.133C146.667 288.133 159.733 278.667 162.4 278.667C162.933 278.667 164.8 277.2 166.4 275.467C167.867 273.6 171.733 271.467 174.933 270.533C178.133 269.733 182.8 268 185.333 266.667C191.467 263.6 213.467 261.2 221.333 262.667C237.467 265.867 242.667 267.333 250.133 270.933C254.533 272.933 259.467 274.667 260.933 274.667C262.4 274.667 269.733 277.333 277.067 280.533C284.533 283.867 291.733 286.8 293.333 287.333C297.867 288.8 296.533 284.667 291.067 280.267C286 276.267 286 276.267 288.533 273.467C291.867 269.867 294.4 270 301.733 274.133C306.667 276.8 308.4 277.2 310.533 276C313.467 274.533 314.267 272.267 315.067 262C315.333 258.267 316.933 252.533 318.533 249.067C321.467 242.933 323.867 240.267 337.067 227.6C340.8 224 344.267 219.867 344.8 218.4C346 214.4 341.333 208.8 336.267 208.267C332.667 207.867 331.733 208.4 330.667 211.333C329.867 213.2 329.333 216.8 329.333 219.333C329.333 222.933 328.267 224.533 324 228C320.933 230.4 317.733 234.267 316.667 236.8C315.6 239.333 314.267 241.333 313.733 241.333C313.2 241.333 311.2 238.133 309.467 234.4L306.4 227.467L311.2 223.2C313.867 220.933 316 218.533 316 217.733C316 217.067 312.8 215.467 309.067 214C297.733 210.133 294.667 207.333 294.667 201.333C294.667 196.8 295.6 195.2 303.733 187.067C308.667 182.133 316 175.2 320 171.867L327.2 165.6L325.6 160.267C324.667 157.467 324 153.2 324 150.8C324 145.467 326.4 145.467 335.6 150.667ZM754.4 224.8C763.6 227.333 772.533 231.333 778 235.2C789.067 243.067 797.6 244.8 804 240.267C805.867 239.067 810.8 234.533 814.933 230.267C827.733 217.333 834 221.067 825.333 236.4C820.4 245.333 820.267 251.333 824.8 261.2C829.467 271.2 831.2 275.2 835.467 285.333C837.333 290.133 840 296.4 841.467 299.333C842.8 302.267 845.467 308.533 847.467 313.333C849.333 318.133 852 324.4 853.467 327.333C854.8 330.267 857.467 336.533 859.467 341.333C861.333 346.133 864 352.4 865.467 355.333C866.8 358.267 869.467 364.533 871.467 369.333C873.333 374.133 876 380.4 877.467 383.333C878.8 386.267 881.467 392.533 883.467 397.333C885.333 402.133 888 408.4 889.467 411.333C890.8 414.267 893.467 420.533 895.467 425.333C897.333 430.133 900 436.4 901.467 439.333C902.8 442.267 905.467 448.533 907.467 453.333C909.333 458.133 912 464.4 913.467 467.333C914.8 470.267 917.467 476.533 919.467 481.333C921.333 486.133 924 492.4 925.333 495.333C926.667 498.267 931.867 510.267 936.8 522C946.267 544.667 950.667 552 954.533 552C956.8 552 967.733 544.533 972.533 539.6C983.333 528.8 994.667 526.667 992.533 535.867C991.467 539.867 961.067 581.2 954.4 587.6C946.267 595.333 939.733 597.733 929.067 597.067L919.733 596.4L912.267 588.4C908 584.133 903.6 578.533 902.4 576C898.933 568.533 890.667 550.533 890.667 550C890.667 549.733 888.267 544.267 885.2 537.733C882.267 531.333 878.267 522.533 876.533 518.267C874.667 514 871.467 506.533 869.2 501.6C866.933 496.667 863.6 489.333 861.733 485.333C860 481.333 858.133 477.067 857.467 476C856.533 474.267 848.667 474 802 473.6C766.4 473.467 747.067 473.733 746 474.667C745.067 475.467 743.333 479.467 742 483.733C740.667 487.867 739.067 492.267 738.533 493.333C736.667 496.933 732 512 732 514.533C732 516.533 733.333 517.2 739.067 517.867C753.067 519.733 770.8 526.267 799.733 540.267C803.467 542.133 806.533 540.667 815.467 532.533C823.067 525.733 830.8 522.667 833.867 525.333C835.733 526.8 835.733 527.467 833.733 531.2C831.333 535.867 824.4 546 821.067 549.867C819.733 551.333 817.067 554.933 815.067 557.867C813.067 560.933 811.067 563.6 810.667 564C810.267 564.4 807.467 568 804.667 572C793.867 586.933 784.267 597.333 781.333 597.333C780.133 597.333 777.467 595.867 775.467 594C769.467 588.533 753.733 576 752.8 576C752.267 576 749.867 574.533 747.6 572.8C742.267 568.933 728.267 562.267 718.667 559.2C714.4 557.867 705.2 556.667 696.4 556.267C681.867 555.733 681.333 555.733 673.067 559.733C659.333 566.533 649.333 578.667 649.333 588.667C649.333 593.867 653.467 601.6 659.467 607.467C669.6 617.467 684.667 620.667 709.067 618.133C718.533 617.2 720 617.333 720 619.067C720 621.867 712.933 626.933 704.667 630.133C696.933 633.067 670.667 633.733 665.2 631.2C663.467 630.267 659.2 628.667 655.733 627.333C637.467 620.933 624 601.333 624 581.2C624 556.267 643.867 530.4 670.667 520.4C683.467 515.6 687.333 514.667 694.933 514.667C699.2 514.667 702.933 514 703.733 512.933C705.2 511.2 706.933 506.8 713.333 488C724.667 454.667 728.133 444.4 729.333 442C732 436.267 755.733 363.067 756.667 357.867C758.667 345.333 751.733 326.4 742.8 320.133C736.933 315.867 726.8 312.933 721.467 313.867C707.067 316.4 706.667 316.4 706.667 313.6C706.667 312 709.467 308.4 713.333 304.933C718.933 299.867 721.6 298.533 730 296.667C739.467 294.667 740.533 294.667 749.6 296.8C754.8 298.133 761.733 300.533 764.8 302.133L770.533 305.2L772.533 302C775.733 297.067 775.467 274.8 772.133 268.267C768.933 262 759.733 253.467 752.667 250.133C749.733 248.8 746.133 247.067 744.8 246.267C739.867 243.867 721.867 243.467 715.733 245.733C706.133 249.2 701.467 249.733 700.533 247.6C699.333 244.267 704.667 236.933 712.133 232C725.467 223.067 739.733 220.667 754.4 224.8ZM1099.73 246.933C1102.4 249.6 1101.73 251.867 1092.8 270C1078.67 298.667 1080 284.267 1080 415.6C1080 529.6 1080 531.067 1082.8 536.533C1086.8 544.533 1094.13 549.333 1102.53 549.333C1106.27 549.333 1110.4 548.8 1111.73 548.133C1122 542.933 1127.2 541.2 1131.6 541.6C1134.27 541.867 1136.67 542.667 1136.93 543.467C1137.6 545.467 1131.2 553.067 1126.53 555.867C1124.67 557.067 1120.4 560.4 1117.07 563.333C1113.73 566.267 1108.13 571.067 1104.53 574C1101.07 576.933 1096 581.2 1093.33 583.467C1084.27 591.333 1070.53 601.333 1068.67 601.333C1065.73 601.333 1061.2 596.267 1052.67 583.467C1042.8 568.8 1036.27 562.267 1028.67 559.333C1022.8 557.2 1022.4 557.2 1011.6 560.533C996.133 565.467 990.667 565.6 990.667 561.467C990.667 559.067 997.467 552.267 1004 548C1009.73 544.267 1022.67 531.733 1025.6 526.8C1028.67 522 1028.67 521.6 1029.73 444C1030.67 365.2 1029.6 309.6 1026.67 299.467C1025.73 296.4 1022 291.067 1017.2 285.867C1012.93 281.2 1009.33 276.8 1009.33 276.133C1009.33 271.867 1011.2 270.667 1018 270.667C1024.53 270.667 1025.6 271.2 1032.13 276.933C1036.13 280.533 1039.73 284 1040.27 284.8C1040.8 285.6 1043.07 287.067 1045.33 288C1048.93 289.467 1049.73 289.333 1052.13 287.2C1053.6 285.867 1056 282.667 1057.6 280.133C1060.8 274.8 1070.93 261.2 1075.73 256C1077.33 254.133 1078.67 252.4 1078.67 251.867C1078.67 251.067 1084.27 248 1088.67 246.533C1093.07 245.067 1098 245.2 1099.73 246.933ZM1196.93 265.6C1198.53 267.333 1202.93 274.267 1206.93 280.933C1210.8 287.733 1217.33 297.067 1221.33 301.6C1225.33 306.133 1231.73 313.2 1235.33 317.333C1239.07 321.467 1246.27 329.6 1251.33 335.333C1256.53 341.2 1263.73 349.2 1267.33 353.333C1271.07 357.467 1277.6 364.933 1282 370C1302.8 393.867 1309.87 401.467 1313.73 403.867C1317.47 406 1319.73 406.267 1331.73 405.733L1345.33 404.933V408.4C1345.33 411.067 1343.47 413.333 1337.2 418.133C1332.67 421.6 1328.27 426.267 1327.33 428.533C1326 431.6 1325.33 446.267 1324.67 482.667C1323.6 539.6 1323.33 537.867 1334.8 546.4C1349.47 557.2 1348.67 558 1322.27 558.133C1302.4 558.133 1296.53 559.067 1284 563.6C1270 568.8 1252.4 580.4 1238 593.867C1226.53 604.667 1225.87 604.4 1200 580.533C1176.93 559.333 1176 558.933 1161.33 564.667C1141.6 572.4 1140 565.333 1158.27 551.867C1170.27 542.933 1170.4 542.8 1170.8 489.2C1171.2 438.4 1171.07 438.267 1162.53 431.733C1160.27 430 1155.6 426.133 1152.27 423.067C1144.13 415.733 1145.47 414 1158.27 415.333C1180.27 417.733 1213.2 416 1215.87 412.267C1216.4 411.733 1219.33 409.867 1222.67 408.133C1239.6 399.067 1241.2 396.8 1235.73 390.667C1234 388.8 1229.47 383.333 1225.47 378.667C1221.47 373.867 1217.2 369.067 1216.13 367.867C1214.93 366.667 1210.93 362.133 1207.2 357.867C1182.13 329.2 1173.73 320 1167.6 315.067C1164.4 312.533 1153.73 308 1150.8 308C1147.47 308 1139.2 303.2 1138.13 300.667C1135.73 294.133 1145.07 290.933 1160 293.2C1165.47 294 1172.53 294.667 1175.73 294.667C1180.53 294.667 1181.6 294.133 1182.67 291.2C1183.47 289.333 1184 284.8 1184 280.933C1184 271.467 1187.47 262.667 1191.33 262.667C1192.93 262.667 1195.47 264 1196.93 265.6ZM1712.53 381.467C1717.33 391.2 1718.67 392.667 1729.2 400.533C1735.47 405.333 1742.53 409.6 1744.67 410.133C1746.93 410.667 1749.47 411.6 1750.4 412.4C1751.33 413.067 1756.4 413.733 1761.73 413.6C1776.4 413.467 1778.67 414.933 1773.6 420.667C1770.93 423.6 1768.4 425.333 1760.53 429.2C1754.13 432.533 1746.8 439.333 1745.2 443.733C1743.2 448.933 1743.73 554.667 1745.73 558.667C1747.87 562.933 1756.67 563.867 1763.07 560.667C1765.47 559.467 1770.53 558.133 1774.4 557.733C1780.8 557.067 1781.33 557.2 1781.33 559.867C1781.33 562.8 1777.2 567.333 1761.2 581.467C1743.33 597.333 1742 598.4 1738.67 598.8C1731.33 599.6 1712.67 590.933 1704.53 582.933C1696.53 574.933 1696.67 576 1696.67 506V442L1692.93 435.733C1688.8 428.8 1672.93 413.333 1670 413.333C1667.47 413.333 1646.13 424.533 1639.73 429.2C1629.6 436.667 1630.13 433.2 1629.6 493.067C1629.07 542.667 1629.2 547.2 1631.47 552.133C1634 557.867 1637.73 560.133 1647.33 561.867C1658.4 564 1659.07 568.8 1649.07 575.2C1645.2 577.6 1640.67 580 1639.07 580.533C1637.33 581.067 1636 582.133 1636 582.8C1636 583.467 1635.33 584 1634.53 584C1633.6 584 1628.27 588.533 1622.53 594C1616.8 599.467 1611.2 604 1610.13 604C1609.07 604 1601.73 597.867 1593.87 590.267C1574.67 571.867 1574.8 572 1561.87 572C1553.33 572 1550.8 571.6 1550.13 570C1548.8 566.533 1551.87 563.333 1564.4 555.2C1570.93 550.8 1577.73 545.6 1579.47 543.6L1582.67 539.733V487.467V435.2L1579.07 431.733C1571.6 424.8 1566.4 423.867 1556.13 427.467C1549.73 429.6 1544 429.067 1544 426.133C1544 423.867 1549.07 418.4 1554.13 415.2C1560.27 411.2 1561.07 410.533 1572 400C1577.6 394.533 1584.27 386.533 1586.8 382.267C1592.53 372.4 1596 372.133 1603.07 380.533C1605.73 383.867 1608 386.933 1608 387.467C1608 389.6 1629.33 409.067 1632.67 409.867C1634.53 410.4 1638.4 410.133 1641.33 409.333C1645.87 408.133 1687.47 381.733 1694 375.867C1697.87 372.4 1704.13 369.467 1705.87 370.133C1706.67 370.533 1709.73 375.6 1712.53 381.467ZM1497.2 376.133C1498.53 377.6 1500.8 381.6 1502 385.067C1505.87 395.733 1528.93 442 1536.67 454.8L1544 466.8L1541.07 469.333C1539.33 470.8 1537.6 471.867 1537.07 472C1536.53 472 1531.33 474.133 1525.73 476.8C1510.8 483.6 1510.8 483.6 1501.33 486.667C1496.53 488.133 1491.47 490 1490 490.667C1488.53 491.333 1483.47 493.067 1478.67 494.667C1473.87 496.133 1469.07 497.867 1468 498.267C1466.93 498.667 1460.67 500.933 1454 503.2L1442 507.333L1441.6 521.867C1441.2 538.8 1441.07 538.533 1455.2 547.067C1472.13 557.333 1476.67 559.067 1485.07 558.4C1493.33 557.867 1493.6 557.6 1508.93 543.6C1521.33 532.4 1535.47 527.333 1540 532.667C1543.47 536.8 1539.33 541.467 1512.8 563.333C1504.93 570 1495.6 577.6 1492.4 580.4C1482.67 588.533 1464 600.267 1460.67 600.267C1457.87 600.267 1451.33 597.6 1443.33 592.933C1441.87 592 1431.87 585.467 1421.07 578.4C1400.13 564.4 1392.4 560.667 1387.6 561.733C1386 562.133 1382 563.2 1378.67 563.867C1375.33 564.667 1371.47 566 1369.87 566.8C1366 568.8 1358.13 567.867 1357.6 565.333C1357.07 562.133 1370.53 549.333 1374.4 549.333C1375.07 549.333 1378.27 546.933 1381.6 544C1390.93 535.867 1391.2 533.867 1390.27 482.667C1389.73 449.467 1389.07 438 1387.6 434.533C1385.87 430.267 1375.87 420 1373.6 420C1371.47 420 1362.67 410.267 1362.67 407.867C1362.67 404.133 1367.07 403.6 1384.4 405.467C1396.4 406.667 1402.53 406.667 1408 405.6C1435.87 400.133 1448 395.733 1475.33 381.733C1484.13 377.2 1492 373.467 1492.93 373.467C1493.87 373.333 1495.73 374.533 1497.2 376.133ZM411.067 478.933C440.533 501.067 465.733 520.133 466.933 521.333C469.2 523.333 469.067 523.733 465.733 528.8C453.333 547.6 433.867 558.4 408.667 560.667C386.533 562.533 369.867 569.467 360.8 580.533L356 586.533L349.333 580C338.8 569.733 322.8 563.467 299.333 560.8C290.8 559.733 276.933 554.933 268.533 550C254.133 541.6 237.733 521.733 242.667 518.667C245.733 516.8 248.533 514.8 263.333 504C270.933 498.533 278.4 493.067 280 492C281.6 490.933 288.8 485.733 295.867 480.667C302.933 475.467 312 469.067 316 466.267C320 463.467 330.267 456.133 338.667 450C347.067 443.867 354.8 438.8 355.733 438.667C356.667 438.667 381.6 456.8 411.067 478.933ZM138.533 547.6C140.933 549.6 142 552.533 142.533 557.6C142.667 558.267 144.4 558.667 146.4 558.667C151.6 558.667 158.4 562.267 159.333 565.6C159.867 567.067 159.867 571.467 159.467 575.2C158.267 583.867 159.6 585.2 170.933 586.8C194.933 590.133 209.2 589.733 227.333 585.067C236.667 582.667 270.267 579.6 276.533 580.533C285.067 581.867 286.667 583.867 286.667 593.867C286.667 600.133 287.2 602.8 288.933 604.133C290.667 605.6 302.4 606 352.133 606C421.333 606 417.2 606.667 418.267 595.2C419.333 583.467 419.467 583.067 425.733 581.467C430.267 580.4 434.267 580.533 443.067 581.867C449.333 582.933 455.067 584.133 455.733 584.533C458.667 586.267 490.533 589.333 506.8 589.333C526.4 589.333 540.133 586.933 544.4 582.8C545.867 581.333 546.933 578 547.2 573.467C547.867 565.333 550 562.4 557.333 560C561.733 558.533 562.8 557.467 563.467 553.867C564.667 547.067 568 544.933 576 545.6C579.733 546 583.867 547.333 585.333 548.667C590.267 553.067 587.733 561.2 580.267 565.2C576.667 567.2 577.333 568.533 583.333 571.467C593.733 576.267 596.667 591.467 588.667 598.267C583.867 602.4 575.6 602.533 572.8 598.4C569.6 593.867 570.267 591.2 575.333 586.933C579.467 583.6 579.867 582.8 578.133 581.467C576.8 580.4 574.133 580.133 570.133 580.667L564 581.6V594.533C563.867 602.533 563.333 608.133 562.267 609.467C557.333 616 535.2 624 522.4 624C515.2 624 495.333 620.4 488.933 617.867C486.267 616.933 481.6 616 478.667 616H473.333V623.2C473.333 631.867 472.133 633.067 454.667 640.267C435.6 648.133 429.6 649.333 396.667 652.8C362.133 656.267 344.133 656.533 316.667 654.133C282 650.933 257.6 646.133 246 640L239.333 636.4L238.667 626.667C237.867 614.133 236.933 613.467 223.2 616.533C217.333 617.733 205.733 620 197.333 621.333C182.933 623.867 181.333 623.867 170.8 621.867C158.933 619.733 152 616.8 146.8 612C143.867 609.067 143.733 608.267 144.133 595.467L144.667 582L138.267 581.6C132.133 581.2 128 582.8 128 585.467C128 586.133 129.067 586.667 130.4 586.667C133.867 586.667 136 589.333 136 593.467C136 598.4 132.8 601.333 127.2 601.333C118.8 601.333 114 592.933 117.733 584.933C120 580.4 127.467 572 129.467 572C131.6 572 130.667 569.333 128.4 568.4C123.6 566.8 120 562.267 120 558C120 553.067 122 550.133 127.333 547.333C132.533 544.8 135.067 544.8 138.533 547.6Z" fill="#FFFAFA"/>
<path d="M355.333 162.533C354.666 163.867 359.6 169.333 361.466 169.333C363.333 169.333 365.6 165.333 364.8 163.333C364 161.067 356.666 160.533 355.333 162.533Z" fill="#FFFAFA"/>
<path d="M343.601 169.333C342.934 171.733 342.534 171.867 339.467 170.533C336.534 169.2 335.467 169.467 331.467 172.533C328.934 174.4 326.401 176 325.867 176C323.734 176 308.934 191.733 307.201 195.867C304.667 201.733 304.801 202 308.667 203.733C310.534 204.533 312.001 206.133 312.001 207.2C312.001 210.667 316.001 210.8 319.201 207.333C320.934 205.467 322.934 204 323.867 204C324.667 204 326.401 203.467 327.734 202.8C336.934 198.133 337.601 198 339.334 200.4C341.334 203.2 345.201 203.333 346.134 200.667C346.667 199.6 348.401 198.667 350.001 198.667C353.867 198.667 354.534 197.733 355.467 190.133C356.267 185.067 356.001 184 354.267 184C351.734 184 346.401 177.467 347.467 175.733C347.867 175.067 350.534 174.933 353.467 175.333C357.734 176.133 358.667 175.867 358.667 174.133C358.667 172.933 357.734 172 356.534 172C355.334 172 352.934 170.8 351.067 169.333C346.667 166 344.534 166 343.601 169.333ZM341.734 183.6C343.867 184.8 339.601 188 335.867 188C332.934 188 332.001 187.333 332.001 185.467C332.001 181.867 336.934 181.067 341.734 183.6Z" fill="#FFFAFA"/>
<path d="M378.266 170.267C377.733 170.667 377.333 171.6 377.333 172.133C377.333 173.2 384.933 177.333 386.933 177.333C388.533 177.333 388.266 172.8 386.4 170.933C384.666 169.2 379.733 168.8 378.266 170.267Z" fill="#FFFAFA"/>
<path d="M365.599 174.267C366.132 177.2 371.999 178.4 371.999 175.6C371.999 173.733 369.332 172 366.399 172C365.732 172 365.332 173.067 365.599 174.267Z" fill="#FFFAFA"/>
<path d="M364.933 179.6C362.933 181.467 364.133 182.667 368 182.667C372.266 182.667 373.333 180.8 369.866 179.467C367.2 178.4 366 178.4 364.933 179.6Z" fill="#FFFAFA"/>
<path d="M359.332 214C358.932 215.066 358.399 216.933 357.999 218.133C357.599 219.333 356.266 220.533 354.932 220.933C353.599 221.2 351.732 223.2 350.799 225.466C349.866 227.6 348.132 229.333 346.799 229.333C345.466 229.333 343.599 230.8 342.666 232.666C341.732 234.533 339.999 236 339.066 236C338.132 236 336.932 236.933 336.532 238C335.999 239.066 333.999 240 331.866 240C324.266 240 320.666 248.133 319.066 268.133C318.266 279.333 316.666 281.733 309.999 281.866C305.066 282.133 306.399 284.666 311.999 285.733C319.732 287.333 326.266 283.733 329.199 276.533C332.399 268.666 337.466 261.2 339.199 261.733C339.999 262 340.799 264.8 341.066 268.133C341.599 275.2 344.399 278.666 349.599 278.666C353.999 278.666 354.666 275.466 350.666 273.333C348.266 272 348.132 271.6 349.999 269.866C352.666 267.2 352.532 265.866 349.332 262.666C346.132 259.466 345.999 258.666 348.666 258.666C349.599 258.666 351.066 259.6 351.732 260.8C353.599 264.133 356.399 261.6 355.599 257.466C354.932 254 354.932 254 361.466 254.4C368.666 254.933 370.132 253.066 365.332 248.933C363.866 247.733 362.666 245.2 362.666 243.333C362.666 241.333 361.466 239.2 359.332 237.866C357.466 236.666 355.999 234.533 355.999 233.2C355.999 231.333 357.199 230.666 361.732 230.4L367.332 230L367.732 223.066C368.132 217.2 367.732 216 365.066 214.133C361.332 211.466 360.132 211.466 359.332 214ZM343.732 249.333C345.732 249.333 345.732 249.6 343.999 250.666C340.666 252.8 337.332 252.266 337.332 249.6C337.332 246.133 338.932 244.933 340.266 247.333C340.932 248.4 342.532 249.333 343.732 249.333Z" fill="#FFFAFA"/>
<path d="M320.8 218C320.4 219.067 319.066 220 317.866 220C316.533 220 316 220.667 316.533 222C316.933 223.2 316.4 224.4 315.333 224.8C314.266 225.334 313.333 226.8 313.333 228.267C313.333 231.734 317.6 230.934 318.666 227.334C319.066 225.867 320.533 224.667 321.866 224.667C325.466 224.667 327.6 220.8 325.466 218.134C323.2 215.467 321.866 215.467 320.8 218Z" fill="#FFFAFA"/>
<path d="M373.066 223.733C370.4 225.2 369.333 227.067 369.333 229.6C369.333 231.6 369.866 233.467 370.4 233.867C372.266 234.933 379.6 230.667 381.333 227.333C384.4 221.467 379.866 219.467 373.066 223.733Z" fill="#FFFAFA"/>
<path d="M368.266 275.467C366.666 276.533 365.333 278.267 365.333 279.333C365.333 282.8 374.266 290 380.8 291.733C386.533 293.333 387.466 293.2 390.533 290.933C397.066 286 395.466 279.733 388.533 283.333C382.933 286.267 376 286 376 282.933C376 281.6 376.666 279.867 377.466 279.067C379.733 276.8 377.866 273.333 374.4 273.333C372.666 273.333 369.866 274.267 368.266 275.467Z" fill="#FFFAFA"/>
<path d="M479.467 279.733C475.734 280 474.134 280.933 473.734 282.8C473.067 284.933 471.734 285.333 463.867 285.333C455.201 285.333 444.401 287.067 440.001 289.333C438.934 289.867 437.867 291.467 437.601 292.933C437.201 295.333 435.867 295.733 422.134 296.4C400.134 297.6 383.334 301.6 383.334 305.867C383.334 310.133 387.467 311.733 392.134 309.067C395.601 307.067 396.267 306.933 396.801 308.667C397.867 311.333 401.201 311.2 404.267 308.4C405.734 307.067 410.267 305.733 414.401 305.2C418.534 304.667 425.601 303.2 430.001 302C435.734 300.4 440.267 300 445.734 300.667C452.801 301.467 453.601 301.2 456.401 298C459.067 294.8 460.401 294.4 471.201 294C480.401 293.6 483.734 293.867 486.267 295.6C488.934 297.333 490.134 297.467 492.134 296.267C495.067 294.4 502.134 294.133 503.201 295.867C503.601 296.533 506.134 297.467 508.667 297.867C511.201 298.4 513.334 299.6 513.334 300.533C513.334 303.2 518.801 308.267 520.934 307.467C524.134 306.133 529.334 310.533 529.334 314.533C529.334 316.533 530.134 319.2 531.201 320.667C533.467 324 534.667 330.133 535.601 341.6C536.401 352.267 535.067 354.933 529.467 355.333C527.067 355.6 523.734 357.067 521.867 358.8C518.934 361.6 518.267 361.6 513.201 360.133C509.334 358.933 507.201 358.933 506.267 359.867C504.001 362.133 509.067 366.667 514.001 366.667C516.267 366.667 518.801 367.333 519.734 368.267C521.734 370.267 530.401 373.333 534.267 373.333C535.867 373.333 538.934 371.867 540.934 370C544.534 366.8 544.534 366.533 542.267 364.8C540.001 363.067 540.001 362.8 542.934 360.8C544.534 359.6 546.934 358.667 548.001 358.667C551.067 358.667 556.001 353.733 556.001 350.533C556.001 348.4 555.467 348 553.334 348.667C550.134 349.733 549.734 346 552.667 342.133C557.867 335.2 557.867 314.667 552.401 303.333C550.667 299.733 549.601 298.933 547.467 299.467C545.334 300 544.001 299.067 542.401 296.267C541.067 294.133 537.734 290.267 534.934 287.733C530.934 284.133 528.801 283.067 526.134 283.6C524.267 284 521.867 283.733 520.934 282.933C518.134 280.667 507.601 278.667 505.867 280.133C504.934 280.8 500.401 280.933 494.534 280.4C489.067 279.733 482.401 279.467 479.467 279.733ZM491.334 286.667C490.934 287.333 489.334 288 487.867 288C486.534 288 485.334 287.333 485.334 286.667C485.334 285.867 486.934 285.333 488.801 285.333C490.667 285.333 491.867 285.867 491.334 286.667ZM523.734 294C525.867 298.533 525.734 300 523.467 300C521.467 300 516.001 294 516.001 291.867C516.001 291.2 517.467 290.667 519.067 290.667C521.201 290.667 522.801 291.867 523.734 294ZM451.601 294.133C451.201 294.533 450.001 294.667 449.067 294.267C448.001 293.867 448.401 293.467 449.867 293.467C451.334 293.333 452.134 293.733 451.601 294.133ZM545.334 309.6C545.334 313.6 543.334 316.533 541.467 315.467C540.667 314.933 540.001 312.8 540.001 310.533C540.001 307.6 540.667 306.667 542.667 306.667C544.534 306.667 545.334 307.6 545.334 309.6ZM549.067 324.8C549.467 327.467 544.801 334.667 543.601 333.333C543.334 332.933 543.334 330.133 543.734 326.933C544.134 322.533 544.801 321.333 546.534 321.6C547.734 321.867 548.801 323.333 549.067 324.8Z" fill="#FFFAFA"/>
<path d="M196.667 280.933C195.2 281.2 192.133 282.4 189.867 283.466C187.467 284.533 184.133 285.2 182.267 285.066C178.533 284.8 171.467 290.133 166.667 297.066C164.533 300.133 162.933 301.2 161.2 300.666C159.2 300 158 301.066 155.733 306.266C151.733 314.8 151.333 337.466 155.067 342.666C158.133 347.066 158 350.666 154.667 350.666C153.2 350.666 152 351.333 152 352.133C152 354.266 160 361.333 162.533 361.333C163.733 361.333 165.6 362 166.667 362.666C168.4 363.866 168.4 364.266 166.133 366C163.867 367.733 163.867 368 167.067 371.2C171.333 375.333 176.4 375.6 185.067 372.133C188.533 370.8 193.733 368.8 196.667 367.733C200.4 366.4 202 365.066 202 363.333C202 360.533 200.267 360.266 192.933 362.133C190.133 362.8 188.4 362.266 186 360C184.267 358.4 180.8 356.666 178.4 356.133C174.533 355.333 173.867 354.533 173.2 350C172.133 343.2 174.533 325.066 176.8 323.2C177.867 322.4 178.667 319.866 178.667 317.733C178.667 312.933 182.267 309.333 186.933 309.333C190.267 309.333 194.667 305.733 194.667 303.066C194.667 301.466 196.133 300.8 205.733 297.333C210.933 295.466 212.4 295.333 214.4 296.8C217.467 299.2 220.667 299.066 222.667 296.666C223.867 295.333 227.2 294.8 236.267 294.933C247.467 295.2 248.4 295.333 251.2 298.666C254 302 254.8 302.266 266.267 302.133C274.4 302.133 279.067 302.666 280.4 303.866C281.6 304.8 286.4 305.866 290.933 306.266C297.067 306.8 300.533 307.866 303.733 310.266C308 313.466 308.267 313.466 310.8 311.2C312.933 309.333 313.867 309.2 316.8 310.533C322.8 313.2 329.2 307.066 325.6 301.866C323.333 298.533 314.933 297.333 293.867 297.333H272.133L270.4 293.733C268.133 289.066 265.067 288.266 248.4 288.133C235.467 288 234.8 287.866 234.4 285.066C234.133 282.8 232.8 281.866 228.933 281.066C224.267 280.133 212.4 281.333 205.733 283.333C203.467 284.133 202.667 283.733 202.667 282.133C202.667 280 201.6 279.733 196.667 280.933ZM224 288C224 288.666 222.533 289.333 220.667 289.333C218.8 289.333 217.333 288.666 217.333 288C217.333 287.2 218.8 286.666 220.667 286.666C222.533 286.666 224 287.2 224 288ZM199.333 290.666C198.933 291.333 197.733 292 196.933 292C196 292 196.133 291.466 197.333 290.666C199.867 289.066 200.4 289.066 199.333 290.666ZM191.333 297.2C189.467 300.933 184.667 303.733 183.067 302.266C182.667 301.866 183.467 299.733 184.8 297.466C186.4 294.8 188.267 293.333 190.267 293.333C193.333 293.333 193.333 293.466 191.333 297.2ZM262.4 295.6C261.067 295.866 258.933 295.866 257.733 295.6C256.4 295.2 257.467 294.933 260 294.933C262.533 294.933 263.6 295.2 262.4 295.6ZM168.667 313.333C168.667 318.133 164.8 317.733 164.267 312.933C163.867 309.866 164.267 309.2 166.267 309.6C167.867 309.866 168.667 311.2 168.667 313.333ZM165.6 329.333C165.733 333.066 165.733 336 165.333 336C164.933 336 163.333 334 161.733 331.733C158.933 327.733 158.933 327.333 160.933 325.066C164.267 321.333 165.067 322.133 165.6 329.333Z" fill="#FFFAFA"/>
<path d="M335.867 280.933C334.667 281.2 332.4 283.867 330.667 286.933C328.267 291.333 328 292.533 329.467 293.467C330.534 294.133 332.534 294.4 334 294C335.467 293.733 337.467 293.333 338.267 293.333C339.2 293.333 340.934 291.867 342.134 290C344.134 286.933 344.134 286.4 342.134 283.333C340.934 281.467 339.467 280.133 338.934 280.133C338.4 280.267 337.067 280.533 335.867 280.933Z" fill="#FFFAFA"/>
<path d="M360.934 283.2C359.734 286.133 363.2 289.866 366 288.933C368 288 368.134 287.6 366.4 285.066C364 281.333 361.867 280.666 360.934 283.2Z" fill="#FFFAFA"/>
<path d="M350.399 290.8C349.066 291.6 347.999 293.733 347.999 295.733C347.999 297.867 346.933 300 345.333 301.067C343.866 302 342.666 303.6 342.666 304.667C342.666 305.733 343.866 306.667 345.333 306.667C348.133 306.667 348.933 308.667 346.666 310C344.533 311.333 345.066 314.667 347.466 314.667C349.333 314.667 349.599 315.6 348.933 320.4C347.999 326.533 349.466 329.333 353.466 329.333C356.399 329.333 357.733 325.867 355.999 322.667C354.133 319.2 354.266 319.067 357.733 319.2C359.999 319.333 360.666 318.667 360.533 316.267C360.533 313.733 361.066 313.333 365.599 313.333C369.733 313.333 370.666 312.8 370.666 310.8C370.666 309.467 369.733 307.6 368.666 306.667C367.599 305.733 366.666 303.333 366.666 301.333C366.666 299.333 365.733 296.933 364.666 296C363.599 295.067 362.666 293.6 362.666 292.667C362.666 289.467 354.666 288.267 350.399 290.8Z" fill="#FFFAFA"/>
<path d="M227.333 301.067C225.199 301.333 222.533 302.133 221.599 302.933C220.799 303.733 215.599 304.267 210.133 304.133C200.266 304 200.133 304 196.666 308.533C194.666 311.067 191.866 313.333 190.266 313.6C188.399 313.867 187.066 315.333 186.399 318.267C185.733 320.667 183.466 325.333 181.333 328.533C177.066 334.8 176.133 340.933 179.199 342.133C180.266 342.533 185.199 340 190.266 336.133C206.666 324.133 206.133 324.667 203.999 322C202.399 320.133 202.399 319.6 204.133 318.533C205.199 317.867 207.999 317.333 210.533 317.333C212.933 317.333 217.866 315.867 221.599 314C227.466 311.067 229.999 310.667 242.399 310.667C259.999 310.667 285.466 315.067 296.666 320C298.133 320.667 303.199 322.533 307.999 324.133C312.799 325.733 317.333 327.6 318.266 328.267C320.266 329.867 328.666 329.067 328.533 327.333C328.399 326.533 326.399 325.067 323.999 323.867C321.466 322.667 319.066 320.4 318.533 318.933C317.599 316.4 316.666 316.133 311.733 316.8C306.799 317.467 305.466 317.067 302.266 314.133C298.133 310.267 296.533 309.867 283.466 308.8C277.999 308.4 273.333 307.2 271.999 306C270.266 304.4 267.999 304.133 262.266 304.8C256.533 305.467 253.999 305.2 251.599 303.6C248.533 301.6 235.199 300.267 227.333 301.067Z" fill="#FFFAFA"/>
<path d="M468 301.066C462.533 301.333 458.533 302.266 457.066 303.6C455.2 305.333 452.933 305.466 446.133 304.8C439.2 304.133 437.333 304.4 436.4 306C435.6 307.333 432.133 308.133 425.333 308.666C411.466 309.866 410 310.266 405.733 314.133C402.533 317.066 401.2 317.466 396.266 316.8C391.333 316.133 390.4 316.4 389.466 318.933C388.933 320.4 386.533 322.666 384 323.866C381.6 325.066 379.6 326.533 379.466 327.333C379.333 329.2 388 329.866 389.733 328.133C390.533 327.333 392 326.666 393.066 326.666C394.133 326.666 396.8 325.866 399.066 324.8C419.333 316 444.666 310.666 466.133 310.666C479.6 310.666 481.6 310.933 486.8 314C490 315.866 494.8 317.333 497.333 317.333C503.733 317.333 506.4 319.066 504.133 321.866C502.666 323.6 502.933 324.4 505.466 326.533C514 333.733 528.533 343.733 529.6 343.2C531.466 342 530.8 332.4 528.666 330.666C527.6 329.733 526.666 328.266 526.666 327.333C526.666 326.4 525.733 325.333 524.666 324.8C523.6 324.4 522.666 322.4 522.666 320.266C522.666 316 520.533 313.333 517.2 313.333C516 313.333 513.333 311.2 511.466 308.666C507.866 304 507.733 304 497.866 304.133C492.4 304.266 487.2 303.733 486.4 302.933C484.133 301.2 478.4 300.533 468 301.066Z" fill="#FFFAFA"/>
<path d="M333.333 308C333.333 310 334.266 310.667 336.666 310.667C339.066 310.667 340 310 340 308C340 306 339.066 305.333 336.666 305.333C334.266 305.333 333.333 306 333.333 308Z" fill="#FFFAFA"/>
<path d="M229.6 315.2C227.333 316.133 224.666 317.467 223.733 318.4C222.8 319.333 220.8 320 219.066 320C217.466 320 215.333 320.933 214.4 322.133C210.266 327.333 205.6 331.467 201.6 333.6C199.2 334.8 197.333 336.8 197.333 338C197.333 340.8 201.066 342.133 204 340.267C205.333 339.467 207.6 339.2 209.066 339.467C210.533 339.867 212.266 339.467 213.066 338.4C220.4 329.467 223.6 326.267 226.933 324.533C229.2 323.333 238.4 321.867 249.466 321.067C265.733 319.6 267.733 319.2 266.133 317.467C264.666 316.133 260.666 315.6 251.466 315.467C244.533 315.333 238.4 314.933 237.866 314.267C236.666 313.067 235.066 313.2 229.6 315.2Z" fill="#FFFAFA"/>
<path d="M451.466 315.2C441.066 317.067 439.866 320 449.6 320C462 320 480 322.8 484.4 325.333C486.8 326.8 489.6 329.2 490.666 330.8C496.666 339.333 497.6 340.267 500.933 339.333C502.8 338.933 505.066 339.2 506 340C508 341.6 512 340.4 512 338C512 336.133 508.8 333.333 503.6 330.667C501.6 329.733 498.666 326.8 497.2 324.4C495.066 321.067 493.466 320 490.533 320C488.4 320 486.666 319.467 486.666 318.8C486.666 318.267 483.866 316.667 480.533 315.333C475.333 313.333 473.866 313.333 471.2 314.667C468.933 316 466.8 316.133 463.733 315.2C460.8 314.267 456.666 314.267 451.466 315.2Z" fill="#FFFAFA"/>
<path d="M238.533 323.867C228 325.867 224.267 329.6 225.2 336.933C225.6 339.733 222.8 343.733 220.133 344.667C216.533 345.733 215.6 349.2 218 352.8C223.333 361.067 216.533 376.8 204 384.667C201.333 386.4 195.733 388.133 191.6 388.667C183.467 389.733 182.267 391.067 180.8 402.133C180.133 406.533 180.667 408.4 182.8 411.067C184.8 413.733 185.2 415.733 184.667 419.2C183.6 424.8 184.8 429.333 187.467 429.333C188.667 429.333 190.933 426.133 192.8 422C194.667 418 196.8 414.4 197.467 414C199.867 412.533 198.667 408 195.333 405.867C192.667 404.133 192.267 403.333 193.467 401.867C194.267 400.8 196.533 400 198.533 400C200.4 400 203.467 399.067 205.333 398C207.2 396.933 210 395.467 211.733 394.8C213.333 394 215.467 392.8 216.4 392C225.067 385.067 228.667 381.333 233.2 374L238.667 365.333V347.333V329.333H259.2C279.2 329.333 283.2 328.533 279.6 325.467C277.333 323.6 246.533 322.4 238.533 323.867Z" fill="#FFFAFA"/>
<path d="M440 323.6C432.667 324.133 428.8 326 430.133 328.133C430.533 328.8 440.4 329.333 452.133 329.333H473.333V348.133C473.333 365.2 473.6 367.467 476.267 371.867C481.733 380.933 492.533 391.6 500 395.2C501.067 395.733 503.467 396.933 505.333 398C507.2 399.067 510.267 400 512.133 400C514.133 400 516.4 400.8 517.2 401.867C518.4 403.333 518 404.267 515.067 406.4L511.467 409.067L516.533 419.2C523.2 432.133 525.867 432.4 526.4 420.267C526.667 414.4 527.333 411.6 528.667 411.067C531.067 410.267 531.2 404.267 529.067 396.8C527.2 390.267 526.667 389.867 518.8 388.667C504.133 386.4 493.467 376 491.2 361.467C490.533 357.2 490.8 355.333 492.667 353.333C495.733 350 494.8 346.4 490.267 344.267C487.2 342.8 486.667 341.733 486.667 337.2C486.667 331.467 483.733 327.467 477.867 325.2C473.867 323.733 450.667 322.667 440 323.6Z" fill="#FFFAFA"/>
<path d="M307.334 347.2C304.134 349.467 305.6 354.134 309.067 352.534C310.267 352 315.067 351.2 319.734 350.934C324.267 350.667 328 349.867 328 349.2C328 345.467 312 343.734 307.334 347.2Z" fill="#FFFAFA"/>
<path d="M422.4 347.067C418 348.8 417.733 350 421.333 352C422.8 352.8 424 354.267 424 355.2C424 357.467 427.333 358.8 430 357.867C431.067 357.467 433.867 358 436.133 359.2C441.333 361.733 442.667 361.867 442.667 359.6C442.533 357.2 436.133 352.933 430.8 351.867C426.8 351.067 427.333 350.933 434.4 350.8C438.933 350.8 442.667 350.133 442.667 349.6C442.667 348.4 431.733 345.2 428.267 345.467C427.067 345.6 424.4 346.267 422.4 347.067Z" fill="#FFFAFA"/>
<path d="M291.734 351.6C289.467 352 287.201 353.6 285.867 355.733C283.734 359.6 277.201 364 274.001 364C272.267 364 268.534 369.067 269.601 370C269.867 370.267 273.201 371.733 276.934 373.2C282.267 375.333 284.801 375.6 287.467 374.667C289.334 373.867 293.201 373.333 296.001 373.333C301.601 373.333 303.334 371.6 304.134 365.333C304.667 362.133 304.401 362 297.601 362.133C288.934 362.4 288.801 359.6 297.467 358.667C301.867 358.133 303.467 357.333 303.734 355.467C304.534 351.2 301.201 350.133 291.734 351.6Z" fill="#FFFAFA"/>
<path d="M400.134 357.333C396.134 361.067 392.001 364 391.067 364C387.601 364 387.467 368.267 390.667 370.667C393.467 372.8 393.601 373.333 392.001 375.2C390.667 376.933 390.667 377.867 391.867 379.067C393.067 380.267 393.601 380 394.134 377.6C395.067 374.4 395.867 374.133 406.001 374.667C413.734 374.933 417.867 372.4 421.867 364.933C424.267 360.267 424.267 360.133 421.334 356.4C415.201 348.533 409.467 348.8 400.134 357.333ZM409.734 362.267C408.801 362.533 406.934 362.533 405.734 362.267C404.401 361.867 405.201 361.6 407.334 361.6C409.601 361.6 410.534 361.867 409.734 362.267Z" fill="#FFFAFA"/>
<path d="M310.4 354.8C305.867 357.467 308.134 358.667 317.334 358.667C327.067 358.667 328.934 357.467 323.334 354.933C319.067 352.933 313.467 352.933 310.4 354.8Z" fill="#FFFAFA"/>
<path d="M308.267 362.933C308.933 364.933 312 365.333 312.133 363.333C312.133 362.533 311.2 361.733 309.867 361.6C308.533 361.2 307.867 361.733 308.267 362.933Z" fill="#FFFAFA"/>
<path d="M302 374.666C299.866 379.333 299.066 380 295.2 380C290.666 380 286.666 382.8 286.666 386C286.666 386.933 286.4 388.666 286 389.6C285.6 390.666 286.8 393.2 288.666 395.466L292 399.333L288 399.733C283.333 400.266 281.6 403.066 284 405.866C285.2 407.466 284.666 408.666 281.466 412.133C279.2 414.533 277.333 416.933 277.333 417.466C277.333 420.133 282.933 418.4 287.333 414.533C291.733 410.666 292.266 410.533 294.533 412.533C297.866 415.6 299.6 415.2 300.533 411.333C301.333 408 305.733 406.666 307.333 409.333C307.733 410 309.6 410.666 311.2 410.666C316 410.666 316.666 403.866 313.2 389.066C308.666 368.933 306 365.733 302 374.666Z" fill="#FFFAFA"/>
<path d="M416.534 373.467C414.401 374.8 411.067 376 409.067 376C406.801 376 404.934 377.067 404.001 378.667C403.201 380.133 401.201 381.333 399.601 381.333C397.867 381.333 395.867 382 394.934 382.933C392.667 385.2 392.934 389.333 395.201 389.333C396.401 389.333 397.334 390.933 397.601 393.6C397.867 397.333 398.667 398.133 401.734 398.4C403.734 398.667 405.334 399.333 405.334 400C405.334 400.667 404.401 400.933 403.201 400.4C400.934 399.6 392.934 406.4 394.134 408.267C394.534 408.8 397.467 409.333 400.801 409.333C405.867 409.333 406.667 408.933 406.667 406.4C406.667 402.667 408.001 404 408.801 408.8C409.201 410.933 410.134 413.467 411.067 414.4C412.267 416 412.934 415.867 414.801 413.467C416.801 411.067 417.201 410.933 418.667 412.667C419.601 413.733 421.467 414.667 422.667 414.667C424.001 414.667 426.401 416.267 428.001 418.267C430.801 421.867 430.934 421.867 432.801 419.467C433.867 418 434.667 415.733 434.667 414.4C434.667 410.933 429.601 401.333 427.334 400.533C426.001 400 425.734 399.067 426.534 397.6C427.867 394.8 427.067 391.867 424.267 389.6C422.401 388.133 422.401 387.867 424.534 386.267C426.534 384.8 426.667 383.867 425.334 378.4C423.467 371.067 421.734 370 416.534 373.467Z" fill="#FFFAFA"/>
<path d="M474.266 376.8C472.532 378.667 473.332 385.333 475.199 385.333C476.266 385.333 477.466 384.933 477.732 384.267C478.532 382.8 475.332 375.733 474.266 376.8Z" fill="#FFFAFA"/>
<path d="M234.934 380.266C233.2 382 232.8 385.733 234.267 387.066C235.734 388.666 238.667 385.2 238.667 381.866C238.667 378.4 237.334 377.866 234.934 380.266Z" fill="#FFFAFA"/>
<path d="M280.399 379.6C279.466 379.867 278.666 381.067 278.666 382.267C278.666 384.934 283.199 383.867 283.733 380.934C284.133 378.667 283.333 378.267 280.399 379.6Z" fill="#FFFAFA"/>
<path d="M162.533 388.933C161.066 391.6 160.666 398 160.666 415.733L160.799 439.067L164.666 442.133C166.933 443.867 171.333 446.133 174.666 447.067C180.533 448.8 180.666 448.933 180.266 453.6C179.999 457.467 180.399 458.667 182.666 459.333C186.799 460.667 196.933 458.667 201.599 455.467C206.666 452.133 209.999 444.267 208.799 439.2C207.999 436.133 207.466 435.733 203.733 436.533C198.533 437.6 195.999 439.6 195.999 442.8C195.999 446.667 193.866 446.933 191.466 443.333C190.266 441.467 188.266 440 186.933 440C183.066 439.867 180.399 436.8 179.599 431.333C179.066 428.4 178.399 424.533 177.866 422.667C176.799 418.933 176.533 396.8 177.466 392.8C177.866 390.8 177.066 389.867 173.999 388.933C171.866 388.267 168.933 387.2 167.733 386.533C164.533 384.933 164.666 384.8 162.533 388.933ZM169.333 397.333C169.333 399.467 168.799 401.333 167.999 401.333C166.533 401.333 166.133 395.6 167.599 394.267C169.066 392.667 169.333 393.2 169.333 397.333ZM170.666 420.933C170.666 421.867 170.133 422.667 169.333 422.667C168.666 422.667 167.999 422.267 167.999 421.6C167.999 421.067 167.599 419.2 167.199 417.333C166.399 414.133 166.399 414 168.399 416.667C169.599 418.133 170.666 420.133 170.666 420.933Z" fill="#FFFAFA"/>
<path d="M542 386.533C541.2 387.2 539.2 388 537.333 388.266C534.666 388.533 534.133 389.333 534.4 392C535.866 404 536.133 416.266 534.933 417.733C534.133 418.666 533.066 423.2 532.533 427.866C531.6 436.133 531.6 436.266 526 438.666C522.933 440 520 442 519.6 443.2C518.4 446.266 516 445.866 516 442.666C516 440 509.066 434.666 505.6 434.666C504.666 434.666 503.333 436.133 502.533 437.733C500.4 442.4 505.866 453.066 512 456.266C517.466 459.066 530.533 459.6 530.8 456.933C530.8 456.133 531.066 453.6 531.066 451.333C531.333 448 532 447.333 536.533 446.4C539.333 445.866 543.333 444.133 545.333 442.666C550 439.333 552.8 432 550.8 428.133C549.733 426.4 549.866 423.2 550.8 417.733C552.533 408.8 551.466 392 549.066 388C547.2 385.2 544 384.533 542 386.533ZM545.333 398.933C545.333 400.266 544.8 401.333 544.133 401.333C542.8 401.333 541.333 395.066 542.4 394C543.466 393.066 545.333 396.266 545.333 398.933ZM542.8 421.733C541.733 422.8 541.333 422.666 541.333 421.2C541.333 420 541.733 418.666 542.266 418.133C542.8 417.6 543.466 417.866 543.733 418.666C544.133 419.6 543.6 420.933 542.8 421.733Z" fill="#FFFAFA"/>
<path d="M222.4 394.8C221.066 395.467 220 396.8 220 397.733C220 398.667 218.133 400.533 216 402C213.733 403.467 211.2 406.267 210.4 408.133C209.6 410.133 207.2 412.8 205.066 414.133C202.8 415.733 201.333 417.867 201.333 419.733C201.333 422.533 201.733 422.667 206.4 421.867C212.133 420.933 218.533 414.4 218.666 409.467C218.666 407.733 220.8 404 223.333 401.2C229.6 394.267 229.066 390.8 222.4 394.8Z" fill="#FFFAFA"/>
<path d="M486.133 394.4C485.733 394.933 487.6 397.733 490.133 400.533C492.667 403.2 494.667 406.4 494.667 407.467C494.667 408.667 496.133 412.133 498 415.2C500.8 419.867 502.267 421.2 506.267 421.733C515.067 423.2 515.6 420.667 508 413.333C505.067 410.4 502.667 407.333 502.667 406.4C502.667 405.333 500.933 403.467 498.667 402.267C496.533 400.933 494.667 399.2 494.667 398.4C494.667 395.333 487.6 392 486.133 394.4Z" fill="#FFFAFA"/>
<path d="M318.266 400.8C316.4 402.8 317.466 405.333 320.133 405.333C322 405.333 322.666 404.667 322.4 403.067C322 400.667 319.733 399.467 318.266 400.8Z" fill="#FFFAFA"/>
<path d="M516.534 471.467C516.001 473.333 516.001 478.133 516.534 482.267C517.201 488.133 516.934 490.133 514.934 492.667C512.401 495.733 512.534 500.933 515.334 512C516.267 515.467 513.867 518.933 507.867 523.2C505.067 525.067 504.934 525.6 506.534 530.4C508.001 534.8 508.001 536.133 506.134 539.733C504.934 542 502.401 544.933 500.534 546.267C498.667 547.6 495.067 550.4 492.667 552.4C487.334 556.8 480.667 558.267 474.401 556.133C468.934 554.267 465.334 555.333 465.334 558.667C465.334 561.6 471.334 566.667 474.801 566.667C476.134 566.667 477.601 567.2 478.001 568C479.334 570.133 498.801 569.6 505.734 567.2C513.467 564.533 515.734 562.133 513.601 558.533C511.467 555.067 511.467 555.067 516.401 553.467C524.667 550.667 532.667 539.333 536.001 525.333C537.467 519.067 537.467 518 535.734 516.8C533.601 515.467 534.267 508.667 537.201 500.933C539.334 495.333 538.934 483.2 536.401 475.067L534.134 468H525.734C517.867 468 517.334 468.133 516.534 471.467ZM529.334 486C529.334 491.6 528.001 492 525.734 487.2C523.867 483.2 524.534 481.333 527.467 481.333C528.667 481.333 529.334 482.8 529.334 486ZM524.401 520.8L521.067 527.333L521.734 520.267C522.667 511.733 523.601 510 526.001 512.533C527.601 514 527.334 515.333 524.401 520.8ZM519.467 540.667C518.534 544.533 516.001 545.2 516.001 541.6C516.001 539.2 518.667 535.6 519.734 536.667C520.001 536.933 520.001 538.8 519.467 540.667ZM508.534 554.4C507.867 556.667 506.667 557.333 503.201 557.333C500.801 557.333 498.401 556.667 498.001 556C497.601 555.2 498.267 554.667 499.734 554.667C501.067 554.667 503.334 553.467 504.667 552C507.601 548.8 509.601 550.133 508.534 554.4Z" fill="#FFFAFA"/>
<path d="M175.866 474.267C173.733 479.6 171.999 495.733 172.933 502C173.333 504.933 174.399 509.867 175.466 513.067C177.733 520.133 177.733 520 175.333 520C172.266 520 172.799 526.267 176.666 536C181.333 547.867 185.066 552.933 191.599 556.133C196.533 558.533 197.199 559.2 196.533 562.533C195.333 568.667 198.533 570 213.999 570C228.399 570 232.266 568.933 239.066 562.8C243.599 558.667 243.599 556.8 239.199 554.8C236.266 553.467 235.066 553.6 231.466 555.733C228.266 557.6 226.266 557.867 223.066 557.067C220.666 556.4 218.666 555.333 218.666 554.8C218.666 554.133 215.733 551.733 212.133 549.467C203.999 544.533 202.266 541.6 203.333 534.267C204.133 529.067 203.866 528.267 199.333 524.133C194.666 519.733 194.533 519.467 195.466 512.133C195.866 508 196.799 503.733 197.466 502.533C198.133 501.067 197.333 498.8 195.066 495.467C192.399 491.733 191.866 490.267 193.066 489.067C194.799 487.333 195.333 473.867 193.733 472.933C193.066 472.533 189.199 471.867 185.066 471.467C177.466 470.533 177.333 470.533 175.866 474.267ZM184.666 482.533C185.466 484 182.666 490.667 181.066 490.667C180.533 490.667 179.999 488.533 179.999 486C179.999 481.467 182.666 479.467 184.666 482.533ZM187.733 516.267C189.466 522.267 189.599 528 187.999 528C187.199 528 186.666 526.8 186.666 525.333C186.666 523.733 185.733 521.067 184.533 519.333C182.399 516 182.799 512 185.199 512C185.866 512 187.066 514 187.733 516.267ZM193.333 541.6C193.333 542.933 192.799 544 192.133 544C190.666 544 189.199 538.667 190.266 536.933C191.199 535.333 193.333 538.533 193.333 541.6ZM205.333 552.667C206.266 553.733 208.133 554.667 209.466 554.667C210.933 554.667 211.999 555.2 211.999 556C211.999 556.667 209.866 557.333 207.333 557.333C203.199 557.333 199.999 554.8 199.999 551.467C199.999 549.867 203.733 550.8 205.333 552.667Z" fill="#FFFAFA"/>
<path d="M794.667 330.533C794 332 793.333 333.867 793.333 334.667C793.333 335.6 792.533 338.133 791.467 340.4C790.4 342.8 787.333 351.2 784.667 359.333C782 367.333 779.333 375.2 778.667 376.667C778 378.133 776.267 383.2 774.533 388C772.933 392.8 768.667 405.067 765.067 415.333C761.467 425.6 758.4 434.533 758.267 435.333C758.133 436.133 772.667 436.8 799.2 437.067L840.267 437.333L839.333 432.4C838.8 429.6 838 426.667 837.467 426C836.933 425.2 835.2 421.067 833.467 416.667C831.867 412.267 829.867 407.467 829.333 406C828.667 404.533 826.8 400 825.333 396C823.733 392 821.867 387.467 821.333 386C820.667 384.533 818.8 380 817.2 376C815.6 372 813.6 366.8 812.667 364.667C811.867 362.4 808.133 353.333 804.667 344.267C801.067 335.333 797.733 328 797.2 328C796.533 328 795.467 329.2 794.667 330.533Z" fill="#FFFAFA"/>
<path d="M1243.33 414.4C1234.4 419.467 1223.87 427.2 1221.2 430.533C1218.4 434 1218.27 434.4 1219.07 485.2L1219.87 536.4L1224.13 540.8C1226.4 543.067 1231.73 547.333 1235.87 550.133C1240 552.933 1243.6 555.6 1244 556C1244.4 556.4 1246.4 557.867 1248.53 559.2C1251.2 560.933 1252.67 561.2 1253.73 560.133C1254.53 559.333 1256.13 558.667 1257.33 558.667C1258.4 558.667 1263.2 556.133 1267.87 553.067L1276.4 547.6L1275.73 490.133L1274.93 432.667L1264 422.4C1252.4 411.333 1250.13 410.533 1243.33 414.4Z" fill="#FFFAFA"/>
<path d="M1445.33 414.267C1443.47 415.467 1441.6 417.2 1441.07 417.867C1440.53 418.667 1440 434.8 1440 453.733C1440 483.733 1440.27 488.133 1442.13 488.933C1443.2 489.333 1445.47 489.067 1447.07 488.267C1448.67 487.467 1452.13 486.4 1454.67 485.867C1457.2 485.467 1460.13 484.533 1461.33 484C1462.4 483.467 1467.87 481.6 1473.33 480C1478.8 478.267 1483.87 476.4 1484.67 475.867C1485.33 475.2 1486.93 474.667 1488.13 474.667C1489.33 474.667 1491.07 473.733 1492.13 472.533C1493.6 470.667 1492 466.933 1481.2 445.867C1474.4 432.267 1466.93 419.067 1464.93 416.533C1461.6 412.533 1460.4 412 1454.8 412C1451.2 412 1447.2 412.933 1445.33 414.267Z" fill="#FFFAFA"/>
<path d="M361.333 472.4C361.333 474.667 362.8 475.067 380.933 476.933C389.6 477.733 392.133 477.6 392.666 476.267C393.6 473.733 387.6 472 373.733 471.067C362.933 470.4 361.333 470.533 361.333 472.4Z" fill="#FFFAFA"/>
<path d="M339.867 479.6C339.2 481.6 335.067 486.4 330.933 490.266C324.533 496.133 323.6 497.6 324.8 499.6C326.8 502.933 334.4 503.333 339.733 500.533C343.333 498.533 344.533 498.533 347.2 500C351.333 502.133 354.4 501.066 355.867 496.933C356.667 494.8 358.533 493.466 361.2 492.933C366.267 491.866 367.467 489.2 365.467 484.266C363.2 478.8 357.467 476 348.8 476C341.867 476 341.2 476.266 339.867 479.6ZM349.6 488.266C347.333 489.333 346.133 489.333 345.067 488.266C343.867 487.066 344.533 486.666 348.133 486.8C352.4 486.8 352.533 486.933 349.6 488.266Z" fill="#FFFAFA"/>
<path d="M367.333 478.667C365.866 481.067 367.999 482.667 372.666 482.667C375.199 482.667 380.533 484.133 384.666 485.867C389.733 488.133 391.999 488.667 391.999 487.467C391.999 485.333 387.066 480.933 382.266 478.933C377.733 476.933 368.533 476.8 367.333 478.667Z" fill="#FFFAFA"/>
<path d="M368 487.867C368 489.467 368.8 490.667 370.133 490.667C371.333 490.667 372 489.733 371.733 488.4C371.067 485.067 368 484.667 368 487.867Z" fill="#FFFAFA"/>
<path d="M358.266 500C356.799 502.267 354.399 504.267 352.266 504.8C345.999 506 344.666 507.466 342.666 515.467C341.466 519.733 338.666 527.2 336.266 532C333.866 536.8 331.999 541.6 331.999 542.667C331.999 545.867 327.999 550.667 324.133 552.133L320.666 553.6L323.999 555.333C328.533 557.867 335.333 557.867 339.333 555.2C341.066 554.133 344.399 553.333 346.933 553.6C350.533 553.867 351.733 554.933 353.599 558.933C354.933 561.6 356.533 564.133 357.199 564.667C359.733 566.133 364.133 562 365.466 556.667C366.266 553.733 367.599 550.933 368.266 550.533C369.066 550 373.466 550 378.133 550.4C385.333 550.933 386.666 550.667 386.666 548.933C386.666 547.467 384.666 546.267 380.666 545.2C377.466 544.4 373.199 542.133 371.199 540.267C368.399 537.333 367.866 536 368.533 532C370.399 521.867 371.866 503.2 371.066 500.667C369.199 494.533 361.599 494.133 358.266 500ZM359.999 518.133C359.999 518.4 358.933 519.733 357.733 521.067C356.399 522.4 354.666 524.667 353.866 526.133C352.666 528.267 352.533 527.867 353.066 524C353.866 518.4 355.599 515.867 358.133 516.933C359.199 517.333 359.999 517.867 359.999 518.133ZM346.666 528C346.666 528.667 346.133 529.333 345.333 529.333C344.666 529.333 343.999 528.667 343.999 528C343.999 527.2 344.666 526.667 345.333 526.667C346.133 526.667 346.666 527.2 346.666 528ZM349.999 541.333C347.466 544.133 345.333 543.733 345.333 540.533C345.333 539.333 346.666 538.667 348.933 538.667C352.266 538.667 352.399 538.8 349.999 541.333Z" fill="#FFFAFA"/>
<path d="M334.666 507.6C334.666 509.733 333.999 512.133 333.066 513.066C331.866 514.266 331.866 515.066 333.066 516.266C335.466 518.666 338.799 514.666 339.066 509.2C339.333 506 338.666 504.666 337.066 504.266C335.199 503.866 334.666 504.666 334.666 507.6Z" fill="#FFFAFA"/>
<path d="M575.466 551.467C574.266 554.533 574.4 554.667 578.666 554.667C582.933 554.667 583.6 553.467 581.066 550.933C578.8 548.667 576.4 548.933 575.466 551.467Z" fill="#FFFAFA"/>
<path d="M126 554.667C122.934 558.133 123.6 558.8 129.734 557.733C133.467 557.2 134.667 556.4 134.4 554.8C133.734 551.6 128.934 551.467 126 554.667Z" fill="#FFFAFA"/>
<path d="M569.334 561.733C565.467 563.067 564.667 564 565.067 566.667C565.201 568.533 565.467 571.333 565.334 572.933C565.334 576.267 566.534 576.8 576.401 578C581.467 578.667 584.001 578.533 584.001 577.6C584.001 575.467 577.067 569.333 573.734 568.533C569.467 567.467 570.001 565.733 574.667 564.667C578.001 563.867 578.534 563.467 577.201 561.867C575.467 559.733 575.334 559.733 569.334 561.733Z" fill="#FFFAFA"/>
<path d="M127.599 562.133C125.999 563.733 128.399 566.667 131.333 566.667C132.933 566.667 135.066 567.467 135.866 568.533C137.066 569.867 135.999 571.067 130.799 574.4C123.866 578.667 119.599 584 123.066 584C124.133 584 126.533 582.8 128.399 581.333C130.666 579.6 133.733 578.667 137.866 578.667C141.733 578.667 143.999 578.133 143.999 577.067C143.999 576.267 145.333 574.133 146.933 572.4C149.466 569.6 149.599 569.067 147.866 567.333C146.799 566.267 142.399 564.4 138.266 563.333C129.599 561.067 128.799 560.933 127.599 562.133Z" fill="#FFFAFA"/>
<path d="M552 573.866C552 579.066 554.4 580.266 557.467 576.533C559.467 574.133 557.733 570.266 554.133 569.6C552.533 569.2 552 570.133 552 573.866Z" fill="#FFFAFA"/>
<path d="M151.2 573.866C149.2 575.466 148.933 576.266 150.133 578.266C150.933 579.6 152.666 580.8 153.866 581.066C155.466 581.466 156 580.533 156 576.8C156 571.6 155.2 571.066 151.2 573.866Z" fill="#FFFAFA"/>
<path d="M148.133 595.867C148.133 606.267 148.533 608 151.066 610.4C155.599 614.4 161.999 617.333 170.133 618.8C176.533 620 177.999 619.867 179.999 618C182.133 616 183.333 616 189.733 617.333C195.866 618.8 198.133 618.667 204.133 616.933C211.999 614.667 229.333 610.933 234.666 610.4C237.199 610.133 237.866 609.333 237.466 607.333C237.199 605.867 236.933 601.867 236.799 598.267C236.666 592.8 236.399 592 233.733 592C232.133 592 230.399 591.333 229.866 590.533C229.333 589.6 226.933 589.467 223.466 590C220.533 590.4 209.333 591.2 198.666 591.6C178.533 592.267 161.733 590.133 155.066 585.867C148.933 582 148.133 583.067 148.133 595.867ZM155.999 592.533C155.999 592.933 155.466 593.6 154.666 594C153.999 594.4 153.333 594.133 153.333 593.467C153.333 592.667 153.999 592 154.666 592C155.466 592 155.999 592.267 155.999 592.533ZM169.333 608C169.333 608.667 168.799 609.333 167.999 609.333C167.333 609.333 166.666 608.667 166.666 608C166.666 607.2 167.333 606.667 167.999 606.667C168.799 606.667 169.333 607.2 169.333 608ZM185.733 607.6C184.799 607.867 183.199 607.867 182.399 607.6C181.466 607.2 182.133 606.933 183.999 606.933C185.866 606.933 186.533 607.2 185.733 607.6Z" fill="#FFFAFA"/>
<path d="M547.333 585.867C541.066 590.267 523.066 592.4 498.4 591.733C474.666 591.067 472 591.467 476 595.467C476.8 596.267 476.8 598.133 475.733 600.933C473.733 606.267 475.866 609.333 481.466 609.333C484.4 609.333 485.733 610.133 486.533 612.4C487.6 615.067 488.666 615.467 495.333 615.6C500.933 615.733 503.333 616.4 504.666 618.267C506.133 620.133 508.666 620.8 518.133 621.2C530.4 621.6 536.666 620.4 546.666 615.6L552.666 612.667V601.733C552.666 595.867 553.066 590.4 553.733 589.867C554.266 589.333 554.666 587.733 554.666 586.4C554.666 583.467 551.066 583.2 547.333 585.867Z" fill="#FFFAFA"/>
<path d="M556.266 590.933C553.866 593.333 554.266 594.667 557.333 594.667C559.066 594.667 560 593.733 560 592C560 588.933 558.666 588.533 556.266 590.933Z" fill="#FFFAFA"/>
<path d="M247.067 593.333C245.333 594 244 595.466 244 596.4C244 599.6 250.4 601.333 266.267 602.266L281.733 603.066L280.8 598.666C280.4 596.133 279.733 593.866 279.333 593.466C278 592.266 250 592 247.067 593.333Z" fill="#FFFAFA"/>
<path d="M425.733 593.466C424.8 594.4 424 596.933 424 599.066V603.066L443.6 602C464.533 601.066 466.667 600.666 466.667 598C466.667 595.066 458.667 593.2 442.667 592.4C430.933 591.866 426.933 592.133 425.733 593.466Z" fill="#FFFAFA"/>
<path d="M556 598.533C554.667 601.2 555.467 605.333 557.333 605.333C559.467 605.333 561.467 601.333 560.667 598.666C559.6 595.333 557.867 595.2 556 598.533Z" fill="#FFFAFA"/>
<path d="M451.334 604.8C406.801 611.467 305.334 612.133 264.001 605.867C257.067 604.8 249.601 604 247.601 604H243.867L244.267 619.6C244.667 634.8 244.801 635.333 248.001 636.8C257.734 641.467 260.401 642.133 279.334 645.333C283.734 646.133 290.934 647.333 295.334 648C309.334 650.533 354.401 651.867 379.867 650.533C393.201 649.867 404.667 649.067 405.334 648.667C405.867 648.267 411.067 647.333 416.801 646.533C422.667 645.867 429.201 644.667 431.334 644C433.601 643.333 438.934 641.733 443.334 640.533C447.734 639.2 455.067 636.533 459.734 634.4L468.001 630.533V616.533C468.001 604.133 467.734 602.667 465.734 602.8C464.401 602.933 458.001 603.867 451.334 604.8ZM450.667 612.667C449.467 614.133 449.201 617.2 449.867 623.333C450.667 631.867 450.667 632.133 447.201 633.333C443.334 634.8 443.201 634.8 434.267 627.733C430.667 624.933 427.201 622.667 426.534 622.667C424.534 622.667 425.201 631.2 427.334 634.133C428.401 635.467 429.334 637.067 429.334 637.6C429.334 638.533 417.067 641.467 416.267 640.667C416.001 640.4 416.401 639.067 417.201 637.6C419.201 633.733 419.067 627.467 416.667 621.733C415.601 619.2 414.667 616.533 414.667 615.867C414.667 615.2 417.734 614.667 421.467 614.667C427.067 614.667 429.201 615.467 433.867 618.933C436.801 621.333 439.734 623.867 440.267 624.667C440.934 625.467 441.601 625.467 442.534 624.667C444.001 623.067 442.934 616 441.201 616C439.334 616 439.734 612.267 441.734 611.6C442.534 611.2 445.334 610.8 447.867 610.8C451.734 610.667 452.134 610.933 450.667 612.667ZM282.134 614.4C282.934 614.933 284.134 618.8 284.534 623.067C285.067 627.333 286.401 632.933 287.467 635.333C290.001 641.333 290.001 641.333 285.067 641.333C279.734 641.333 278.001 640.133 278.001 636.667C278.001 632.8 267.067 630.4 264.667 633.733C262.801 636.4 258.534 636.667 256.267 634.4C253.867 632 254.267 631.067 257.867 630.133C260.801 629.467 271.201 619.733 273.601 615.467C274.801 613.2 279.601 612.667 282.134 614.4ZM308.667 616.133L314.401 617.6L311.867 621.733C309.067 626.533 308.401 637.2 310.934 639.733C313.601 642.4 322.801 641.733 326.267 638.4C328.001 636.8 329.601 635.733 329.867 636.133C331.067 637.333 328.934 643.867 327.201 644.533C324.801 645.467 300.667 643.867 298.801 642.667C297.867 642.133 298.267 640.133 300.134 636.533C302.267 632.4 302.801 629.6 302.267 622.933C301.867 618.4 301.867 614.667 302.267 614.667C302.534 614.667 305.467 615.333 308.667 616.133ZM357.734 617.333C359.067 617.333 362.001 619.067 364.134 621.2C368.534 625.733 369.334 632.267 366.001 638.667C363.067 644.267 360.267 645.333 348.134 645.333C338.267 645.333 334.001 644 337.334 642C338.001 641.6 338.667 636.533 338.667 630.667C338.667 622.133 338.267 620.133 336.401 619.2C333.734 618 347.734 616 352.667 616.8C354.134 617.067 356.401 617.333 357.734 617.333ZM406.934 617.733C407.467 618.533 408.001 620.4 408.001 621.733C408.001 624 407.734 624 404.534 621.467C400.267 618.133 389.201 617.6 386.801 620.533C384.001 623.867 386.534 626.667 392.134 626.667C396.401 626.667 397.334 627.067 397.334 629.333C397.334 631.467 396.401 632 392.801 632C387.201 632 384.534 634.8 386.667 638.533C389.334 643.6 400.534 641.867 405.601 635.467C408.001 632.667 408.001 632.667 408.001 636.933C408.001 640.533 407.334 641.333 403.734 642.4C398.134 644.133 374.667 645.6 374.667 644.267C374.667 643.733 375.601 642.133 376.667 640.8C377.867 639.2 378.667 635.2 378.667 630.667C378.667 626.133 377.867 622.133 376.667 620.533C375.601 619.2 374.801 617.733 374.667 617.333C374.667 616.933 381.734 616.533 390.267 616.4C401.467 616.133 406.134 616.533 406.934 617.733Z" fill="#FFFAFA"/>
<path d="M273.6 623.333C270.133 627.733 270.8 629.333 276.133 629.333C280.4 629.333 281.333 626.4 278.267 622.133C276.533 619.733 276.267 619.866 273.6 623.333Z" fill="#FFFAFA"/>
<path d="M345.599 630.933L345.999 642L350.933 642.4C357.599 642.933 360.666 638.533 359.599 629.733C358.799 622.533 356.266 620 349.733 620H345.199L345.599 630.933Z" fill="#FFFAFA"/>
</svg>
