<svg width="311" height="420" viewBox="0 0 311 420" fill="none" xmlns="http://www.w3.org/2000/svg">
<path d="M102.871 361.496C91.7875 337.194 80.096 313.684 65.7504 291.494C48.6332 265.018 34.888 236.655 21.1637 208.324C14.6317 194.84 8.45374 181.185 2.08924 167.619C-2.22918 158.415 0.0464268 153.704 9.85468 150.982C18.6718 148.536 27.4907 146.004 35.3486 141.061C37.0183 140.011 38.8902 139.17 40.1329 136.522C36.7138 132.669 33.1686 128.536 29.4749 124.541C22.2127 116.685 22.1625 108.324 30.1208 100.909C39.5592 92.1148 50.7672 85.7494 61.8673 79.3304C72.976 72.9064 84.3139 66.9068 96.3885 62.4444C98.6302 61.616 100.868 60.3795 103.45 61.1595C103.502 63.7594 101.58 64.5687 100.336 65.7571C91.8968 73.8233 83.7921 82.123 77.2525 91.9171C69.7551 103.146 69.8943 115.746 71.0887 128.088C73.489 152.891 78.2385 177.374 83.1556 201.807C86.3018 217.441 88.8251 233.2 91.9933 248.829C96.0859 269.018 100.521 289.139 104.849 309.28C112.286 343.884 119.749 378.483 127.227 413.078C127.58 414.711 127.899 416.273 126.315 419.422C118.606 399.284 111.221 380.389 102.871 361.496Z" fill="#1E1E1E"/>
<path d="M238.474 73.9297C252.16 80.9667 264.875 88.8638 276.849 97.9377C278.435 99.1397 279.949 100.483 281.299 101.942C288.293 109.504 288.228 116.429 281.277 124C277.466 128.151 273.759 132.397 269.547 137.113C274.775 141.605 280.476 144.497 286.554 146.644C291.573 148.418 296.7 149.891 301.802 151.424C310.286 153.972 312.487 158.334 308.738 166.497C300.957 183.444 292.96 200.291 285.004 217.157C269.135 250.795 249.828 282.5 230.98 314.504C213.204 344.69 200.194 377.227 187.789 409.945C186.735 412.726 185.889 415.589 183.974 418.163C181.838 417.094 182.532 415.486 182.874 413.917C188.437 388.423 194.039 362.937 199.522 337.426C205.665 308.84 212.045 280.297 217.686 251.611C224.063 219.18 230.848 186.817 236.028 154.16C237.694 143.656 239.697 133.149 239.969 122.511C240.317 108.952 237.979 96.0989 228.534 85.3314C222.707 78.6877 217.04 71.9285 210.281 66.2013C208.91 65.0396 207.25 64.2194 204.977 62.7641C210.987 60.4909 225.104 65.8063 238.474 73.9297Z" fill="#1E1E1E"/>
<path d="M101.737 168.678C100.811 166.51 99.4739 164.489 102.959 163.99C105.019 163.695 105.047 161.937 105.115 160.545C105.652 149.553 105.822 138.572 102.973 127.801C102.811 127.191 102.365 126.657 101.621 125.307C97.2951 132.353 98.165 139.94 97.3001 146.759C95.5671 147.162 94.8588 146.528 94.7737 145.713C93.668 135.117 92.9696 124.537 95.7681 114.045C96.5744 111.023 98.2222 110.549 100.975 111.388C115.905 115.939 129.924 122.307 142.268 131.998C144.151 133.476 145.878 133.894 148.233 133.323C152.608 132.263 157.154 131.347 161.555 132.811C166.235 134.367 169.683 132.843 173.416 130.045C183.989 122.122 195.356 115.614 208.186 111.895C214.049 110.196 214.792 110.556 215.863 116.86C217.298 125.298 216.895 133.784 216.683 142.267C216.646 143.734 216.697 145.339 214.188 146.345C212.329 139.255 214.556 131.528 210.537 123.774C204.52 137.935 203.664 151.48 206.08 165.267C207.649 166.346 208.599 163.876 210.264 165.287C210.901 168.551 208.976 171.087 206.612 173.117C204.327 175.078 202.164 172.952 200.228 171.945C190.474 166.871 180.887 161.486 171.713 155.417C169.586 154.01 167.845 153.485 165.31 154.537C159.693 156.866 153.877 156.577 148.239 154.486C145.664 153.53 143.599 153.762 141.195 155.117C131.044 160.84 120.81 166.419 110.539 171.926C105.19 174.795 104.576 174.49 101.737 168.678Z" fill="#CF352E"/>
<path d="M109.728 3.14624C111.211 1.81752 112.124 0.287155 115.231 0C121.069 33.0113 126.921 66.1035 132.796 99.3241C129.617 99.7379 129.123 97.8508 128.321 96.5582C117.87 79.7145 107.47 62.8391 97.0444 45.9798C93.8255 40.7747 91.8964 35.3022 92.0782 29.0077C92.2371 23.5069 94.0855 18.9348 97.8168 15.0727C101.637 11.1192 105.582 7.28708 109.728 3.14624Z" fill="#1E1E1E"/>
<path d="M195.152 77.624C190.278 85.213 186.31 92.9817 180.875 99.747C180.312 99.5486 179.749 99.3501 179.186 99.1516C184.996 66.1275 190.806 33.1033 196.581 0.275774C200.055 0.0891894 201.004 2.14696 202.379 3.45445C205.51 6.43369 208.311 9.78827 211.612 12.5546C222.091 21.338 221.491 34.8666 215.804 44.2434C209.082 55.3269 202.178 66.3006 195.152 77.624Z" fill="#1E1E1E"/>
<path d="M154.646 340.06C147.925 339.122 143.881 335.582 142.531 329.376C141.445 324.386 143.267 320.147 147.079 316.892C151.193 313.377 156.826 312.94 161.573 315.495C166.336 318.057 168.951 323.027 168.362 328.393C167.762 333.862 164.363 337.949 158.99 339.497C157.727 339.861 156.371 339.902 154.646 340.06Z" fill="#1E1E1E"/>
<path d="M159.2 276.009C167.113 279.693 170.281 286.678 167.488 293.621C165.128 299.485 157.962 302.835 151.773 300.967C144.881 298.886 140.879 292.014 142.705 285.394C144.698 278.17 151.637 274.076 159.2 276.009Z" fill="#1E1E1E"/>
</svg>
